<svg width="60" height="13" viewBox="0 0 60 13" fill="none" xmlns="http://www.w3.org/2000/svg">
    <path d="M0.206454 3.52H5.70245V10H4.69445V4.456H1.22645V10H0.206454V3.52ZM10.441 10.144C9.80105 10.144 9.21705 10 8.68905 9.712C8.16105 9.416 7.74905 9.012 7.45305 8.5C7.15705 7.98 7.00905 7.4 7.00905 6.76C7.00905 5.784 7.33305 4.976 7.98105 4.336C8.63705 3.696 9.45705 3.376 10.441 3.376C11.089 3.376 11.673 3.524 12.193 3.82C12.721 4.108 13.133 4.512 13.429 5.032C13.733 5.544 13.885 6.12 13.885 6.76C13.885 7.728 13.557 8.536 12.901 9.184C12.245 9.824 11.425 10.144 10.441 10.144ZM8.72505 8.488C9.18105 8.936 9.75305 9.16 10.441 9.16C11.137 9.16 11.709 8.936 12.157 8.488C12.613 8.032 12.841 7.456 12.841 6.76C12.841 6.064 12.613 5.492 12.157 5.044C11.709 4.588 11.137 4.36 10.441 4.36C9.75305 4.36 9.18105 4.588 8.72505 5.044C8.27705 5.492 8.05305 6.064 8.05305 6.76C8.05305 7.456 8.27705 8.032 8.72505 8.488ZM19.5872 3.376C20.5552 3.376 21.3512 3.696 21.9752 4.336C22.6072 4.976 22.9232 5.784 22.9232 6.76C22.9232 7.728 22.6072 8.536 21.9752 9.184C21.3512 9.824 20.5552 10.144 19.5872 10.144C18.6112 10.144 17.8072 9.808 17.1752 9.136V12.316H16.1552V3.52H16.8512L17.0552 4.516C17.3592 4.156 17.7272 3.876 18.1592 3.676C18.5992 3.476 19.0752 3.376 19.5872 3.376ZM19.5152 9.16C20.2032 9.16 20.7712 8.932 21.2192 8.476C21.6672 8.02 21.8912 7.448 21.8912 6.76C21.8912 6.072 21.6672 5.5 21.2192 5.044C20.7712 4.588 20.2032 4.36 19.5152 4.36C18.8272 4.36 18.2552 4.592 17.7992 5.056C17.3512 5.512 17.1272 6.08 17.1272 6.76C17.1272 7.208 17.2272 7.616 17.4272 7.984C17.6352 8.352 17.9232 8.64 18.2912 8.848C18.6592 9.056 19.0672 9.16 19.5152 9.16ZM29.7555 3.52H30.5715V10H29.7195L29.6115 9.016C29.3075 9.376 28.9355 9.656 28.4955 9.856C28.0635 10.048 27.5875 10.144 27.0675 10.144C26.1155 10.144 25.3195 9.824 24.6795 9.184C24.0395 8.536 23.7195 7.728 23.7195 6.76C23.7195 5.792 24.0395 4.988 24.6795 4.348C25.3195 3.7 26.1155 3.376 27.0675 3.376C27.5955 3.376 28.0755 3.476 28.5075 3.676C28.9475 3.876 29.3195 4.156 29.6235 4.516L29.7555 3.52ZM25.4355 8.476C25.8915 8.932 26.4635 9.16 27.1515 9.16C27.8395 9.16 28.4075 8.932 28.8555 8.476C29.3035 8.02 29.5275 7.448 29.5275 6.76C29.5275 6.072 29.3035 5.5 28.8555 5.044C28.4075 4.588 27.8395 4.36 27.1515 4.36C26.4635 4.36 25.8915 4.592 25.4355 5.056C24.9875 5.512 24.7635 6.08 24.7635 6.76C24.7635 7.44 24.9875 8.012 25.4355 8.476ZM35.5661 3.856C36.4861 3.856 37.2421 4.148 37.8341 4.732C38.4261 5.308 38.7221 6.048 38.7221 6.952C38.7221 7.888 38.4141 8.656 37.7981 9.256C37.1821 9.848 36.3901 10.144 35.4221 10.144C34.4061 10.144 33.5941 9.824 32.9861 9.184C32.3861 8.536 32.0861 7.672 32.0861 6.592C32.0861 4.928 32.3861 3.684 32.9861 2.86C33.5861 2.036 34.6261 1.444 36.1061 1.084L38.0261 0.628V1.636L36.1301 2.092C35.2901 2.284 34.6341 2.6 34.1621 3.04C33.6901 3.48 33.3861 4.064 33.2501 4.792C33.8181 4.168 34.5901 3.856 35.5661 3.856ZM35.4221 9.16C36.0621 9.16 36.5981 8.952 37.0301 8.536C37.4621 8.112 37.6781 7.588 37.6781 6.964C37.6781 6.332 37.4621 5.804 37.0301 5.38C36.5981 4.956 36.0621 4.744 35.4221 4.744C34.7741 4.744 34.2341 4.956 33.8021 5.38C33.3701 5.796 33.1541 6.32 33.1541 6.952C33.1541 7.264 33.2101 7.556 33.3221 7.828C33.4421 8.1 33.6021 8.332 33.8021 8.524C34.0021 8.716 34.2421 8.872 34.5221 8.992C34.8021 9.104 35.1021 9.16 35.4221 9.16ZM42.9606 10.144C42.3206 10.144 41.7366 10 41.2086 9.712C40.6806 9.416 40.2686 9.012 39.9726 8.5C39.6766 7.98 39.5286 7.4 39.5286 6.76C39.5286 5.784 39.8526 4.976 40.5006 4.336C41.1566 3.696 41.9766 3.376 42.9606 3.376C43.6086 3.376 44.1926 3.524 44.7126 3.82C45.2406 4.108 45.6526 4.512 45.9486 5.032C46.2526 5.544 46.4046 6.12 46.4046 6.76C46.4046 7.728 46.0766 8.536 45.4206 9.184C44.7646 9.824 43.9446 10.144 42.9606 10.144ZM41.2446 8.488C41.7006 8.936 42.2726 9.16 42.9606 9.16C43.6566 9.16 44.2286 8.936 44.6766 8.488C45.1326 8.032 45.3606 7.456 45.3606 6.76C45.3606 6.064 45.1326 5.492 44.6766 5.044C44.2286 4.588 43.6566 4.36 42.9606 4.36C42.2726 4.36 41.7006 4.588 41.2446 5.044C40.7966 5.492 40.5726 6.064 40.5726 6.76C40.5726 7.456 40.7966 8.032 41.2446 8.488ZM52.4958 3.52V4.444H50.0838V10H49.0878V4.444H46.6758V3.52H52.4958ZM59.3355 6.784C59.3355 6.872 59.3275 6.996 59.3115 7.156H53.7795C53.8595 7.756 54.1075 8.24 54.5235 8.608C54.9395 8.968 55.4515 9.148 56.0595 9.148C56.5075 9.148 56.9035 9.052 57.2475 8.86C57.5995 8.66 57.8795 8.38 58.0875 8.02H59.1555C58.8835 8.692 58.4755 9.216 57.9315 9.592C57.3875 9.96 56.7635 10.144 56.0595 10.144C55.1235 10.144 54.3395 9.82 53.7075 9.172C53.0755 8.524 52.7595 7.72 52.7595 6.76C52.7595 5.792 53.0755 4.988 53.7075 4.348C54.3395 3.7 55.1235 3.376 56.0595 3.376C57.0275 3.376 57.8155 3.704 58.4235 4.36C59.0315 5.016 59.3355 5.824 59.3355 6.784ZM56.0595 4.348C55.6755 4.348 55.3235 4.424 55.0035 4.576C54.6915 4.728 54.4315 4.948 54.2235 5.236C54.0155 5.516 53.8755 5.84 53.8035 6.208H58.3035C58.2315 5.832 58.0915 5.504 57.8835 5.224C57.6755 4.936 57.4155 4.72 57.1035 4.576C56.7915 4.424 56.4435 4.348 56.0595 4.348Z" fill="#2C2C2C"/>
</svg>