<svg width="17" height="15" viewBox="0 0 17 15" fill="none" xmlns="http://www.w3.org/2000/svg">
    <path d="M16.8879 6.9396C15.0384 2.58667 12.246 0.397217 8.50049 0.397217C4.7517 0.397217 1.96253 2.58667 0.113042 6.9396C-0.0363785 7.29585 -0.0363785 7.70776 0.113042 8.0603C1.96253 12.4132 4.75503 14.6027 8.50049 14.6027C12.2493 14.6027 15.0384 12.4132 16.8879 8.0603C17.0374 7.70776 17.0374 7.29585 16.8879 6.9396ZM8.50049 13.033C5.35603 13.033 3.05164 11.2517 1.42794 7.49995C3.05164 3.74819 5.35603 1.96694 8.50049 1.96694C11.645 1.96694 13.9493 3.74819 15.573 7.49995C13.9493 11.2517 11.6483 13.033 8.50049 13.033ZM8.42412 3.66655C6.52814 3.66655 4.9941 5.38472 4.9941 7.49995C4.9941 9.61519 6.53146 11.3333 8.42412 11.3333C10.3168 11.3333 11.8541 9.6189 11.8541 7.49995C11.8541 5.38101 10.3168 3.66655 8.42412 3.66655ZM8.42412 9.94175C7.2188 9.94175 6.23926 8.85073 6.23926 7.49995C6.23926 6.15288 7.21548 5.05815 8.42412 5.05815C9.63276 5.05815 10.609 6.14917 10.609 7.49995C10.6057 8.84702 9.62944 9.94175 8.42412 9.94175Z" fill="#6E6F74"/>
</svg>