<svg width="650" height="152" viewBox="0 0 650 152" fill="none" xmlns="http://www.w3.org/2000/svg">
    <path d="M74.9963 150.987C55.1051 150.986 36.0289 143.083 21.9644 129.017C7.8999 114.951 -0.000889969 95.8745 0.000115421 75.9833C0.00112081 56.092 7.90384 37.0159 21.9698 22.9514C36.0357 8.88683 55.1127 0.986045 75.0039 0.98705C94.8951 0.988056 113.971 8.89077 128.036 22.9567C142.1 37.0227 150.001 56.0996 150 75.9908C149.999 95.8821 142.096 114.958 128.03 129.023C113.965 143.087 94.8876 150.988 74.9963 150.987ZM324.996 151C305.105 150.999 286.029 143.096 271.964 129.03C257.9 114.964 249.999 95.8871 250 75.9959C250.001 56.1047 257.904 37.0285 271.97 22.964C286.036 8.89947 305.113 0.998681 325.004 0.999686C344.895 1.00069 363.971 8.90341 378.036 22.9693C392.1 37.0353 400.001 56.1122 400 76.0035C399.999 95.8947 392.096 114.971 378.03 129.035C363.965 143.1 344.888 151.001 324.996 151ZM574.996 151.012C555.105 151.011 536.029 143.109 521.964 129.043C507.9 114.977 499.999 95.8998 500 76.0085C500.001 56.1173 507.904 37.0411 521.97 22.9766C536.036 8.91211 555.113 1.01132 575.004 1.01232C594.895 1.01333 613.971 8.91605 628.036 22.982C642.1 37.0479 650.001 56.1249 650 76.0161C649.999 95.9074 642.096 114.984 628.03 129.048C613.965 143.113 594.888 151.013 574.996 151.012Z" fill="black"/>
</svg>