<svg width="18" height="16" viewBox="0 0 18 16" fill="none" xmlns="http://www.w3.org/2000/svg">
    <path d="M9.00185 15.1579L1.9997 9.27692L1.53455 8.81824C1.04651 8.33975 0.65959 7.77055 0.396183 7.14359C0.132776 6.51662 -0.00187735 5.84436 1.97703e-05 5.16572C1.97703e-05 3.78604 0.54535 2.48907 1.53455 1.51321C2.01984 1.03206 2.59708 0.650611 3.23288 0.390937C3.86867 0.131264 4.55038 -0.00147566 5.23854 0.000403361C6.63766 0.000403361 7.95333 0.537752 8.94253 1.51321L9.00144 1.5713L9.06035 1.51321C10.0496 0.537348 11.3652 0 12.7643 0C14.1635 0 15.4791 0.537348 16.4683 1.5128C18.5106 3.52665 18.5106 6.80358 16.4683 8.81783L15.9692 9.30717L9.00185 15.1579ZM2.79622 8.4596L9.00185 13.6701L15.2071 8.4596L15.6563 8.01706C17.2501 6.44495 17.2501 3.8869 15.6563 2.31479C15.2774 1.93915 14.8268 1.64133 14.3305 1.43857C13.8342 1.23582 13.302 1.13216 12.7648 1.13359C12.2275 1.13216 11.6953 1.23582 11.199 1.43857C10.7027 1.64133 10.2521 1.93915 9.87323 2.31479L9.00226 3.17407L8.13088 2.31479C7.75208 1.93911 7.30147 1.64127 6.80513 1.43851C6.3088 1.23576 5.7766 1.13212 5.23936 1.13359C4.70207 1.13217 4.16983 1.23584 3.67343 1.43859C3.17704 1.64134 2.72634 1.93915 2.34743 2.31479C1.57505 3.07644 1.14959 4.08861 1.14959 5.16572C1.14959 6.24284 1.57505 7.25541 2.34743 8.01706L2.79622 8.4596Z" fill="#515151"/>
</svg>