<svg width="25" height="16" viewBox="0 0 25 16" fill="none" xmlns="http://www.w3.org/2000/svg">
    <path d="M6.66504 0.600098C3.91602 0.600098 1.66504 2.85107 1.66504 5.6001C1.66504 7.25537 2.48047 8.7251 3.7207 9.63818C1.52832 10.7271 0 12.9878 0 15.6001H1.66504C1.66504 12.8315 3.89648 10.6001 6.66504 10.6001C9.43359 10.6001 11.665 12.8315 11.665 15.6001H13.3301C13.3301 12.8315 15.5615 10.6001 18.3301 10.6001C21.0986 10.6001 23.3301 12.8315 23.3301 15.6001H25C25 12.9878 23.4717 10.7271 21.2744 9.63818C22.5195 8.7251 23.3301 7.25537 23.3301 5.6001C23.3301 2.85107 21.0791 0.600098 18.3301 0.600098C15.5811 0.600098 13.3301 2.85107 13.3301 5.6001C13.3301 7.25537 14.1455 8.7251 15.3857 9.63818C14.1699 10.2388 13.1543 11.1909 12.4951 12.3726C11.8359 11.1909 10.8203 10.2388 9.60449 9.63818C10.8496 8.7251 11.6602 7.25537 11.6602 5.6001C11.665 2.85107 9.41895 0.600098 6.66504 0.600098ZM6.66504 2.26514C8.51563 2.26514 10 3.74463 10 5.6001C10 7.45557 8.52051 8.93506 6.66504 8.93506C4.80957 8.93506 3.33008 7.45557 3.33008 5.6001C3.33008 3.74463 4.81445 2.26514 6.66504 2.26514ZM18.335 2.26514C20.1855 2.26514 21.6699 3.74463 21.6699 5.6001C21.6699 7.45557 20.1904 8.93506 18.335 8.93506C16.4795 8.93506 15 7.45557 15 5.6001C15 3.74463 16.4795 2.26514 18.335 2.26514Z" fill="black"/>
</svg>